<?xml version="1.0" encoding="utf-8"?>
<!-- Uploaded to: SVG Repo, www.svgrepo.com, Generator: SVG Repo Mixer Tools -->
<svg fill="#000000" width="800px" height="800px" viewBox="0 0 32 32" version="1.1" xmlns="http://www.w3.org/2000/svg">
<title>chevron-down</title>
<path d="M26.885 10.116c-0.227-0.226-0.539-0.366-0.885-0.366s-0.658 0.14-0.885 0.366v0l-9.115 9.115-9.116-9.115c-0.226-0.225-0.537-0.363-0.881-0.363-0.69 0-1.25 0.56-1.25 1.25 0 0.344 0.139 0.655 0.363 0.881l10 10.001c0.226 0.226 0.539 0.365 0.884 0.365s0.657-0.14 0.884-0.365l10.001-10.001c0.225-0.227 0.365-0.539 0.365-0.884s-0.139-0.657-0.365-0.884l0 0z"></path>
</svg>